<svg width="72" height="34" viewBox="0 0 72 34" fill="none" xmlns="http://www.w3.org/2000/svg">
<g clip-path="url(#clip0_1044_5866)">
<path d="M71.4973 6.48286C71.4149 6.85511 71.3326 7.22252 71.2551 7.59476C71.0855 8.4166 70.916 9.23844 70.7416 10.0603C70.7222 10.1521 70.6883 10.2585 70.6932 10.3358C70.6932 10.5824 70.5672 10.5969 70.3735 10.5969C68.7604 10.5921 67.1425 10.5921 65.5295 10.5969C65.3648 10.5969 65.2776 10.6114 65.3357 10.3745C65.5489 9.514 65.7329 8.64865 65.9073 7.77847C66.0139 7.24669 66.2028 6.72941 66.2173 6.18313C66.2319 5.77221 66.0526 5.50632 65.7426 5.42414C65.4713 5.35162 65.0935 5.5595 64.9046 5.86406C64.5849 6.37651 64.4783 6.95179 64.3718 7.52708C64.27 8.07336 64.2943 8.62448 64.2749 9.1756C64.2555 9.62036 64.3911 10.0361 64.4832 10.4567C64.7351 11.6121 65.0112 12.7627 65.2534 13.9229C65.3987 14.6191 65.5731 15.3104 65.7329 16.0065C65.9751 17.0846 66.2173 18.1627 66.4595 19.2407C66.6969 20.3043 66.9633 21.363 67.1716 22.4314C67.2636 22.91 67.3363 23.4031 67.3314 23.8962C67.3266 24.2153 67.3896 24.5295 67.3847 24.8534C67.3605 26.4342 67.1522 27.9861 66.5516 29.4605C66.072 30.6353 65.3696 31.6698 64.4008 32.4917C63.5531 33.212 62.5601 33.6471 61.4654 33.855C60.7678 33.9855 60.0703 34.029 59.3679 33.9903C57.8905 33.9033 56.5875 33.3957 55.5993 32.2548C55.0326 31.6022 54.7032 30.8287 54.5918 29.9633C54.5336 29.5234 54.5482 29.0835 54.5579 28.6435C54.5675 28.1456 54.708 27.667 54.8146 27.1836C55.0374 26.1828 55.2505 25.1773 55.4734 24.1718C55.5121 23.9881 55.5896 23.8092 55.6042 23.6255C55.6187 23.4128 55.7301 23.4079 55.89 23.4079C57.503 23.4128 59.1209 23.4128 60.7339 23.4079C60.9132 23.4079 60.981 23.4418 60.9374 23.6351C60.6807 24.7809 60.4336 25.9315 60.1672 27.0772C60.1091 27.3189 60.08 27.5558 60.0752 27.8024C60.0752 28.0392 60.1527 28.2326 60.3609 28.3341C60.6031 28.4502 60.8308 28.4018 61.0439 28.2278C61.3152 28.0054 61.4508 27.696 61.5623 27.3914C61.7705 26.8161 61.8432 26.2022 61.9304 25.5931C62.0515 24.7615 61.7463 24.0074 61.601 23.2242C61.4363 22.3444 61.2377 21.4742 61.0439 20.5992C60.8647 19.7628 60.671 18.9313 60.4917 18.095C60.2834 17.1426 60.0897 16.1951 59.8814 15.2427C59.7312 14.5514 59.5762 13.8649 59.4309 13.1736C59.2614 12.3663 59.0676 11.5686 58.9513 10.7468C58.8302 9.90075 58.8351 9.0499 58.8738 8.20389C58.9368 6.92762 59.1887 5.68036 59.6876 4.49111C60.1284 3.44689 60.7291 2.50419 61.5671 1.73069C62.4196 0.947528 63.4078 0.439922 64.5462 0.19337C65.2534 0.0435047 65.9654 -0.0290106 66.6823 0.0096642C67.811 0.0676764 68.8428 0.396412 69.7244 1.15057C70.5478 1.85155 71.0419 2.74591 71.3471 3.75629C71.4198 3.998 71.4537 4.25423 71.507 4.50078C71.4973 5.16308 71.4973 5.82056 71.4973 6.48286Z" fill="#1DB954"/>
<path d="M-7.7663e-05 33.0235C0.17915 32.8978 0.135554 32.6802 0.174306 32.511C0.440725 31.3266 0.668392 30.1325 0.920279 28.9433C1.11888 28.0054 1.33686 27.0772 1.53546 26.1393C1.77282 25.0274 1.9908 23.9107 2.22815 22.7988C2.46066 21.7159 2.70771 20.6427 2.94022 19.5598C3.1582 18.5397 3.36649 17.5197 3.57962 16.4948C3.88479 15.03 4.18997 13.5604 4.50482 12.0955C4.77124 10.8531 5.05704 9.61553 5.31861 8.3731C5.66738 6.72942 5.99193 5.08574 6.34554 3.44206C6.54414 2.53803 6.74274 1.63401 6.92197 0.725152C6.95103 0.594624 7.00916 0.522109 7.17386 0.526943C9.26646 0.536612 11.3542 0.507606 13.4468 0.541446C14.3672 0.555949 15.2149 0.875017 15.9415 1.47931C16.9248 2.29148 17.4867 3.3357 17.7144 4.55396C17.8887 5.49666 17.8597 6.44419 17.6417 7.38689C17.3656 8.57131 17.1525 9.77022 16.9006 10.9595C16.6826 11.9795 16.4356 12.9947 16.2321 14.0148C16.048 14.9285 15.7865 15.8083 15.3505 16.635C15.0744 17.1571 14.7305 17.6357 14.3284 18.0805C13.8489 18.6074 13.3015 19.0425 12.6766 19.3712C12.1486 19.6468 11.577 19.8257 10.9861 19.932C10.0948 20.0867 9.1938 20.0094 8.29282 20.0191C8.12812 20.0191 8.06999 20.0867 8.04093 20.2173C7.84233 21.1696 7.65341 22.122 7.45481 23.0744C7.28043 23.901 7.1012 24.7325 6.92197 25.5592C6.72821 26.4729 6.52961 27.3866 6.34069 28.3003C6.17115 29.1173 6.02099 29.9343 5.85145 30.7465C5.68191 31.578 5.493 32.4047 5.32346 33.2313C5.28955 33.4054 5.21689 33.4682 5.02797 33.4682C3.34711 33.4585 1.6711 33.4634 -0.00976562 33.4634C-7.7663e-05 33.3135 -7.7663e-05 33.1685 -7.7663e-05 33.0235ZM9.77508 14.6046C10.4775 14.6674 10.8843 14.2952 11.0345 13.6715C11.2573 12.7579 11.4317 11.8345 11.6206 10.9111C11.7902 10.0796 11.9646 9.25295 12.1244 8.42144C12.2407 7.82681 12.4296 7.24669 12.4005 6.62306C12.3811 6.1928 12.0857 5.94625 11.7078 5.95109C11.5238 5.95109 11.3009 5.89791 11.1653 5.98493C11.0297 6.07195 11.0684 6.31366 11.0345 6.49253C10.7826 7.69145 10.5162 8.8807 10.2692 10.0796C9.98337 11.4477 9.71695 12.8159 9.436 14.184C9.35365 14.6046 9.34396 14.6046 9.77508 14.6046Z" fill="#1DB954"/>
<path d="M39.0087 13.4734C39.1201 13.1301 39.1347 12.8255 39.1831 12.5258C39.2848 11.9264 39.3769 11.3269 39.4592 10.7274C39.5997 9.73156 39.8758 8.76469 40.0647 7.77365C40.2246 6.94214 40.4232 6.1203 40.6072 5.29362C40.8301 4.27358 41.0529 3.25836 41.2709 2.23831C41.3871 1.71137 41.4985 1.17959 41.6099 0.652646C41.6342 0.531787 41.7262 0.541455 41.8182 0.541455C42.1331 0.541455 42.4479 0.541455 42.7628 0.541455C43.9593 0.541455 45.1509 0.541455 46.3473 0.541455C46.4927 0.541455 46.5605 0.526952 46.5169 0.739664C46.2553 1.94342 46.0034 3.14717 45.737 4.35093C45.4076 5.84474 45.1218 7.34822 44.807 8.84687C44.5793 9.92977 44.3226 11.003 44.0901 12.0859C43.8382 13.2751 43.6057 14.4692 43.3538 15.6585C43.1358 16.6785 42.8984 17.6937 42.6853 18.7138C42.4673 19.7435 42.2639 20.7732 42.0459 21.8029C41.8764 22.6103 41.6923 23.4079 41.5179 24.2153C41.3387 25.0565 41.1594 25.9025 40.9851 26.7485C40.675 28.2133 40.3796 29.6829 40.0599 31.1477C39.8952 31.8922 39.7305 32.6319 39.5851 33.3812C39.5561 33.5359 39.4495 33.4682 39.3817 33.4682C38.3742 33.4731 37.3618 33.4731 36.3542 33.4731C36.049 33.4731 35.739 33.4682 35.4339 33.4779C35.3128 33.4827 35.2692 33.4489 35.2692 33.3184C35.2692 31.9938 35.3321 30.6691 35.337 29.3397C35.337 28.9288 35.366 28.5082 35.366 28.0924C35.366 26.7823 35.4048 25.4722 35.4339 24.1621C35.4532 23.3016 35.4096 22.4411 35.4726 21.5854C35.5404 20.7007 35.4726 19.816 35.521 18.9362C35.5404 18.6026 35.5598 18.269 35.521 17.9258C35.4532 18.3125 35.3806 18.7041 35.3176 19.0909C35.1674 20.0142 35.0221 20.9376 34.8187 21.8513C34.6249 22.7408 34.4408 23.6303 34.2519 24.5198C34.0824 25.3078 33.9128 26.1007 33.7433 26.8887C33.5253 27.9232 33.3074 28.9626 33.0845 29.9972C32.8859 30.9254 32.6873 31.8536 32.479 32.7769C32.4597 32.8688 32.45 32.9606 32.4257 33.0525C32.3095 33.4634 32.3192 33.4634 31.8881 33.4634C30.4106 33.4634 28.9332 33.4634 27.4268 33.4634C27.5866 32.7141 27.7416 31.9744 27.9015 31.2348C28.0807 30.3984 28.2599 29.5621 28.4343 28.7257C28.7443 27.2609 29.0446 25.7913 29.3595 24.3265C29.655 22.939 29.9844 21.5564 30.2702 20.1689C30.5996 18.5736 30.9483 16.9783 31.2874 15.3829C31.612 13.8649 31.9317 12.3469 32.2562 10.829C32.5275 9.54786 32.7939 8.26675 33.0748 6.98565C33.3364 5.7964 33.5544 4.60231 33.816 3.41306C34.0146 2.50904 34.2132 1.60501 34.3972 0.696155C34.4166 0.594633 34.4602 0.536621 34.5862 0.536621C36.0394 0.541455 37.4925 0.541455 38.9457 0.536621C39.1201 0.536621 39.0911 0.638143 39.0911 0.739664C39.0911 2.14163 39.1298 3.54359 39.0814 4.94555C38.999 7.44975 39.0765 9.94911 39.0378 12.4533C39.0329 12.7724 38.9651 13.0914 39.0087 13.4734Z" fill="#1DB954"/>
<path d="M27.6301 17.2973C28.2307 17.7469 28.5165 18.327 28.6328 19.0135C28.7732 19.8354 28.5892 20.6185 28.4196 21.4065C28.2307 22.296 28.0418 23.1856 27.8529 24.0751C27.6737 24.9259 27.4847 25.7768 27.3055 26.6276C27.1166 27.5171 26.9277 28.4067 26.7388 29.2962C26.5595 30.147 26.3706 30.9979 26.1914 31.8487C26.0994 32.2838 25.9976 32.7237 25.9201 33.1637C25.8814 33.3812 25.8184 33.4731 25.5665 33.4634C24.6365 33.4441 23.7113 33.4537 22.7812 33.4537C22.0401 33.4537 21.299 33.4537 20.5336 33.4537C20.8436 32.0276 21.1537 30.6208 21.454 29.214C21.7398 27.8797 22.0014 26.5406 22.2871 25.2063C22.5148 24.1234 22.7715 23.0502 22.9992 21.9673C23.1009 21.4935 23.1881 21.0149 23.0573 20.5315C22.9847 20.2656 22.7715 20.1157 22.4954 20.1109C22.2775 20.1109 22.0014 20.0336 21.8609 20.1399C21.7349 20.2318 21.7495 20.5218 21.7059 20.7297C21.4491 21.9673 21.1924 23.2001 20.9308 24.4377C20.7129 25.4722 20.4803 26.5068 20.2624 27.5413C20.0105 28.7451 19.7731 29.9537 19.5261 31.1622C19.3808 31.8681 19.2306 32.5739 19.0804 33.2797C19.0562 33.3909 19.0175 33.4586 18.8625 33.4586C17.2252 33.4489 15.5831 33.4489 13.9458 33.4586C13.7375 33.4586 13.7375 33.3522 13.7666 33.2217C13.97 32.2886 14.1832 31.3556 14.3866 30.4226C14.5901 29.4799 14.779 28.5324 14.9776 27.5897C15.2828 26.1297 15.5879 24.6745 15.8979 23.2146C16.145 22.0592 16.4114 20.9037 16.6584 19.7483C16.9103 18.5591 17.1477 17.365 17.3996 16.1757C17.5788 15.3249 17.7774 14.4789 17.9566 13.628C18.1455 12.7482 18.3248 11.8635 18.5137 10.9788C18.6784 10.1908 18.8528 9.39798 19.0175 8.60998C19.2354 7.57543 19.4534 6.53604 19.6762 5.50149C19.8603 4.65065 20.0492 3.7998 20.2285 2.94895C20.3883 2.21413 20.5433 1.47448 20.6886 0.73482C20.7177 0.580121 20.7661 0.522108 20.9308 0.522108C23.0283 0.526943 25.1306 0.497937 27.228 0.536612C28.1677 0.551115 29.0203 0.889519 29.7566 1.51315C30.706 2.31565 31.2437 3.34054 31.4762 4.52979C31.5876 5.10991 31.6167 5.70454 31.5585 6.30883C31.4326 7.5996 31.079 8.8372 30.8174 10.099C30.5122 11.5638 30.2071 13.0334 29.8922 14.4982C29.7275 15.2717 29.3836 15.9582 28.8168 16.5093C28.4778 16.8429 28.0902 17.1039 27.6301 17.2973ZM23.5466 14.3629C24.1908 14.3629 24.5299 14.1502 24.7334 13.6184C24.7963 13.4492 24.8351 13.2751 24.8738 13.0963C25.0627 12.2454 25.242 11.3946 25.426 10.5437C25.6198 9.64937 25.8233 8.75018 25.9976 7.85099C26.0751 7.44974 26.2205 7.05815 26.2059 6.6424C26.1914 6.29433 26.0122 6.09128 25.6682 5.98976C25.4212 5.91725 25.1742 5.96559 24.9271 5.95109C24.8399 5.94625 24.8109 6.00427 24.7963 6.08645C24.5396 7.38206 24.2974 8.67766 24.0164 9.9636C23.7307 11.2737 23.4594 12.5887 23.1978 13.9036C23.1688 14.0486 23.0719 14.2468 23.13 14.3242C23.2123 14.4305 23.4206 14.3484 23.5466 14.3629Z" fill="#1DB954"/>
<path d="M43.9448 33.4585C45.8921 24.2878 47.8394 15.1315 49.7915 5.95108C49.4379 5.95108 49.094 5.95108 48.7501 5.95108C48.2172 5.95108 47.6844 5.94624 47.1515 5.95591C47.0111 5.95591 46.9917 5.94141 47.0256 5.78671C47.3356 4.37991 47.6166 2.96345 47.9508 1.56149C48.0138 1.2956 48.0477 1.02004 48.1058 0.749315C48.13 0.628456 48.1591 0.531769 48.3383 0.531769C51.889 0.541438 55.4396 0.536603 58.9951 0.536603C59.0193 0.536603 59.0435 0.541438 59.0871 0.546272C58.8885 1.4648 58.6851 2.38333 58.4913 3.29702C58.3169 4.10436 58.1522 4.90686 57.9875 5.71419C57.9536 5.8834 57.8906 5.95591 57.6969 5.95591C56.9073 5.94141 56.1129 5.95591 55.3233 5.94624C55.1683 5.94624 55.1102 6.00909 55.0811 6.12995C54.8825 7.06781 54.6888 8.00568 54.495 8.93871C54.3448 9.64452 54.1947 10.3503 54.0445 11.0562C53.8556 11.9553 53.6715 12.8545 53.4778 13.7489C53.2937 14.6046 53.0951 15.4603 52.911 16.3208C52.7221 17.2006 52.5477 18.0901 52.3637 18.97C52.2183 19.6661 52.0633 20.3671 51.9132 21.0633C51.7243 21.9625 51.5353 22.8568 51.3464 23.756C51.1624 24.6068 50.9686 25.4529 50.7894 26.3037C50.6005 27.1836 50.4212 28.0682 50.2323 28.9529C50.0676 29.7409 49.8981 30.5338 49.7285 31.3218C49.5881 31.9744 49.4524 32.627 49.312 33.2748C49.2926 33.3667 49.2732 33.4537 49.1376 33.4537C47.4131 33.4585 45.6838 33.4585 43.9448 33.4585Z" fill="#1DB954"/>
</g>
<defs>
<clipPath id="clip0_1044_5866">
<rect width="71.4971" height="34" fill="white"/>
</clipPath>
</defs>
</svg>
